<svg width="48" height="48" viewBox="0 0 48 48" fill="none" xmlns="http://www.w3.org/2000/svg">
<rect width="48" height="48" rx="3" fill="#040422"/>
<path d="M14.8938 21.58V20.32H15.7938V19.78H14.8938V17.62H15.7938V17.08H14.8938V14.2H15.2538V16.72H16.1538V17.98H15.2538V19.42H16.1538V20.68H15.2538V21.22H16.6938V17.62H17.5938V15.28H15.7938V14.02H16.6938V13.12H19.7538V14.02H20.2938V13.12H21.5538V14.92H22.4538V15.82H22.9938V14.02H23.8938V13.12H26.0538V14.02H28.7538V15.28H24.9738V14.92H28.3938V14.38H25.6938V13.48H24.2538V14.38H23.3538V16.18H22.0938V15.28H21.1938V13.48H20.6538V14.38H19.3938V13.48H17.0538V14.38H16.1538V14.92H17.9538V17.98H17.0538V21.58H14.8938ZM22.0938 14.2V13.12H23.1738V13.48H22.4538V14.2H22.0938ZM17.7738 14.38V14.02H18.6738V14.38H17.7738ZM24.7938 23.38V22.12H25.6938V21.22H27.4938V20.68H25.6938V18.88H24.7938V17.98H22.0938V17.08H18.4938V15.82H20.2938V15.28H19.5738V14.92H20.6538V16.18H18.8538V16.72H22.4538V17.62H25.1538V18.52H26.0538V20.32H27.8538V21.58H26.0538V22.48H25.1538V23.02H27.4938V22.48H26.7738V22.12H27.8538V23.38H24.7938ZM29.4738 15.28V14.92H30.3738V15.28H29.4738ZM23.1738 17.08V16.72H24.7938V16.18H23.8938V15.1H24.2538V15.82H25.1538V17.08H23.1738ZM16.6938 16.9V16.18H15.9738V15.82H17.0538V16.9H16.6938ZM30.3738 17.08V16.72H31.0938V16.18H28.5738V15.82H31.4538V17.08H30.3738ZM31.0938 20.68V17.98H30.5538V18.88H28.3938V17.98H27.8538V18.88H26.5938V17.08H25.6938V15.82H27.8538V16.72H29.6538V17.8H29.2938V17.08H27.4938V16.18H26.0538V16.72H26.9538V18.52H27.4938V17.62H28.7538V18.52H30.1938V17.62H31.4538V20.32H32.8938V19.6H33.2538V20.68H31.0938ZM31.9938 16.9V16H32.3538V16.9H31.9938ZM26.5938 27.88V25.72H27.6738V26.08H26.9538V27.52H27.4938V26.62H28.3938V25.18H26.5938V24.28H23.8938V22.48H22.0938V19.78H21.1938V18.88H20.6538V19.78H19.7538V20.32H21.5538V22.48H18.4938V20.68H17.5938V19.42H18.4938V18.52H19.3938V17.62H20.4738V17.98H19.7538V18.88H18.8538V19.78H17.9538V20.32H18.8538V22.12H21.1938V20.68H19.3938V19.42H20.2938V18.52H21.5538V19.42H22.4538V22.12H24.2538V23.92H26.9538V24.82H28.7538V26.98H27.8538V27.88H26.5938ZM32.1738 17.98V17.62H33.0738V17.98H32.1738ZM22.2738 18.88V18.52H24.0738V18.88H22.2738ZM31.9938 19.6V18.52H33.0738V18.88H32.3538V19.6H31.9938ZM26.7738 19.78V19.42H28.5738V19.78H26.7738ZM28.3938 22.48V20.32H29.2938V19.42H30.5538V20.5H30.1938V19.78H29.6538V20.68H28.7538V22.12H29.2938V21.22H30.5538V22.12H31.2738V22.48H30.1938V21.58H29.6538V22.48H28.3938ZM31.2738 21.58V21.22H32.1738V21.58H31.2738ZM19.5738 21.58V21.22H20.4738V21.58H19.5738ZM20.2938 26.08V25.18H19.5738V24.82H20.6538V25.72H21.1938V23.38H17.5938V21.4H17.9538V23.02H21.5538V26.08H20.2938ZM14.8938 24.28V23.2H15.2538V23.92H15.7938V22.48H15.0738V22.12H16.1538V24.28H14.8938ZM16.6938 24.1V22.3H17.0538V24.1H16.6938ZM31.0938 25.18V23.2H31.4538V24.82H31.9938V22.3H32.3538V25.18H31.0938ZM32.8938 23.2V22.3H33.2538V23.2H32.8938ZM22.0938 25.18V23.02H23.3538V24.1H22.9938V23.38H22.4538V24.82H23.1738V25.18H22.0938ZM29.2938 26.08V24.82H30.1938V23.38H28.7538V23.92H29.4738V24.28H28.3938V23.02H30.5538V25.18H29.6538V25.72H30.3738V26.08H29.2938ZM19.5738 24.28V23.92H20.4738V24.28H19.5738ZM14.8938 34.18V32.02H16.6938V31.12H17.9538V32.2H17.5938V31.48H17.0538V32.38H15.2538V33.82H17.5938V32.92H18.8538V33.82H22.0938V33.28H19.3938V32.38H18.4938V30.58H16.1538V31.48H14.8938V28.42H16.1538V29.32H16.6938V27.52H17.5938V26.98H16.6938V24.82H17.5938V23.92H18.8538V25.72H19.7538V26.62H20.6538V27.52H21.1938V26.62H22.4538V27.52H24.7938V26.98H23.1738V26.62H25.1538V27.88H22.0938V26.98H21.5538V27.88H20.2938V26.98H19.3938V26.08H18.4938V24.28H17.9538V25.18H17.0538V26.62H17.9538V27.88H17.0538V29.68H15.7938V28.78H15.2538V31.12H15.7938V30.22H18.8538V32.02H19.7538V32.92H22.4538V34.18H18.4938V33.28H17.9538V34.18H14.8938ZM25.6938 26.8V26.08H24.7938V25.18H24.0738V24.82H25.1538V25.72H26.0538V26.8H25.6938ZM15.0738 26.08V25.72H15.7938V25.18H15.0738V24.82H16.1538V26.08H15.0738ZM22.2738 26.08V25.72H24.0738V26.08H22.2738ZM14.8938 27.7V26.62H16.1538V27.7H15.7938V26.98H15.2538V27.7H14.8938ZM29.4738 26.98V26.62H30.3738V26.98H29.4738ZM20.2938 32.38V31.12H22.0938V30.58H21.1938V29.32H22.0938V28.78H20.6538V30.58H19.3938V29.68H17.5938V28.42H18.4938V26.8H18.8538V28.78H17.9538V29.32H19.7538V30.22H20.2938V28.42H22.4538V29.68H21.5538V30.22H22.4538V31.48H20.6538V32.02H21.3738V32.38H20.2938ZM19.3938 28.6V27.7H19.7538V28.6H19.3938ZM15.9738 33.28V32.92H16.8738V33.28H15.9738Z" fill="white"/>
</svg>
