<svg width="25" height="29" viewBox="0 0 25 29" fill="none" xmlns="http://www.w3.org/2000/svg">
<path d="M-2.18749e-05 11.28V9.6H1.19998V8.87999H-2.18749e-05V6H1.19998V5.28H-2.18749e-05V1.44H0.479978V4.79999H1.67998V6.47999H0.479978V8.4H1.67998V10.08H0.479978V10.8H2.39998V6H3.59998V2.88H1.19998V1.2H2.39998V-5.24521e-06H6.47998V1.2H7.19998V-5.24521e-06H8.87998V2.39999H10.08V3.6H10.8V1.2H12V-5.24521e-06H14.88V1.2H18.48V2.88H13.44V2.39999H18V1.67999H14.4V0.479996H12.48V1.67999H11.28V4.07999H9.59998V2.88H8.39998V0.479996H7.67998V1.67999H5.99998V0.479996H2.87998V1.67999H1.67998V2.39999H4.07998V6.47999H2.87998V11.28H-2.18749e-05ZM9.59998 1.44V-5.24521e-06H11.04V0.479996H10.08V1.44H9.59998ZM3.83998 1.67999V1.2H5.03998V1.67999H3.83998ZM13.2 13.68V12H14.4V10.8H16.8V10.08H14.4V7.68H13.2V6.47999H9.59998V5.28H4.79998V3.6H7.19998V2.88H6.23998V2.39999H7.67998V4.07999H5.27998V4.79999H10.08V6H13.68V7.2H14.88V9.6H17.28V11.28H14.88V12.48H13.68V13.2H16.8V12.48H15.84V12H17.28V13.68H13.2ZM19.44 2.88V2.39999H20.64V2.88H19.44ZM11.04 5.28V4.79999H13.2V4.07999H12V2.63999H12.48V3.6H13.68V5.28H11.04ZM2.39998 5.03999V4.07999H1.43998V3.6H2.87998V5.03999H2.39998ZM20.64 5.28V4.79999H21.6V4.07999H18.24V3.6H22.08V5.28H20.64ZM21.6 10.08V6.47999H20.88V7.68H18V6.47999H17.28V7.68H15.6V5.28H14.4V3.6H17.28V4.79999H19.68V6.24H19.2V5.28H16.8V4.07999H14.88V4.79999H16.08V7.2H16.8V6H18.48V7.2H20.4V6H22.08V9.6H24V8.64H24.48V10.08H21.6ZM22.8 5.03999V3.84H23.28V5.03999H22.8ZM15.6 19.68V16.8H17.04V17.28H16.08V19.2H16.8V18H18V16.08H15.6V14.88H12V12.48H9.59998V8.87999H8.39998V7.68H7.67998V8.87999H6.47998V9.6H8.87998V12.48H4.79998V10.08H3.59998V8.4H4.79998V7.2H5.99998V6H7.43998V6.47999H6.47998V7.68H5.27998V8.87999H4.07998V9.6H5.27998V12H8.39998V10.08H5.99998V8.4H7.19998V7.2H8.87998V8.4H10.08V12H12.48V14.4H16.08V15.6H18.48V18.48H17.28V19.68H15.6ZM23.04 6.47999V6H24.24V6.47999H23.04ZM9.83998 7.68V7.2H12.24V7.68H9.83998ZM22.8 8.64V7.2H24.24V7.68H23.28V8.64H22.8ZM15.84 8.87999V8.4H18.24V8.87999H15.84ZM18 12.48V9.6H19.2V8.4H20.88V9.84H20.4V8.87999H19.68V10.08H18.48V12H19.2V10.8H20.88V12H21.84V12.48H20.4V11.28H19.68V12.48H18ZM21.84 11.28V10.8H23.04V11.28H21.84ZM6.23998 11.28V10.8H7.43998V11.28H6.23998ZM7.19998 17.28V16.08H6.23998V15.6H7.67998V16.8H8.39998V13.68H3.59998V11.04H4.07998V13.2H8.87998V17.28H7.19998ZM-2.18749e-05 14.88V13.44H0.479978V14.4H1.19998V12.48H0.239978V12H1.67998V14.88H-2.18749e-05ZM2.39998 14.64V12.24H2.87998V14.64H2.39998ZM21.6 16.08V13.44H22.08V15.6H22.8V12.24H23.28V16.08H21.6ZM24 13.44V12.24H24.48V13.44H24ZM9.59998 16.08V13.2H11.28V14.64H10.8V13.68H10.08V15.6H11.04V16.08H9.59998ZM19.2 17.28V15.6H20.4V13.68H18.48V14.4H19.44V14.88H18V13.2H20.88V16.08H19.68V16.8H20.64V17.28H19.2ZM6.23998 14.88V14.4H7.43998V14.88H6.23998ZM-2.18749e-05 28.08V25.2H2.39998V24H4.07998V25.44H3.59998V24.48H2.87998V25.68H0.479978V27.6H3.59998V26.4H5.27998V27.6H9.59998V26.88H5.99998V25.68H4.79998V23.28H1.67998V24.48H-2.18749e-05V20.4H1.67998V21.6H2.39998V19.2H3.59998V18.48H2.39998V15.6H3.59998V14.4H5.27998V16.8H6.47998V18H7.67998V19.2H8.39998V18H10.08V19.2H13.2V18.48H11.04V18H13.68V19.68H9.59998V18.48H8.87998V19.68H7.19998V18.48H5.99998V17.28H4.79998V14.88H4.07998V16.08H2.87998V18H4.07998V19.68H2.87998V22.08H1.19998V20.88H0.479978V24H1.19998V22.8H5.27998V25.2H6.47998V26.4H10.08V28.08H4.79998V26.88H4.07998V28.08H-2.18749e-05ZM14.4 18.24V17.28H13.2V16.08H12.24V15.6H13.68V16.8H14.88V18.24H14.4ZM0.239978 17.28V16.8H1.19998V16.08H0.239978V15.6H1.67998V17.28H0.239978ZM9.83998 17.28V16.8H12.24V17.28H9.83998ZM-2.18749e-05 19.44V18H1.67998V19.44H1.19998V18.48H0.479978V19.44H-2.18749e-05ZM19.44 18.48V18H20.64V18.48H19.44ZM7.19998 25.68V24H9.59998V23.28H8.39998V21.6H9.59998V20.88H7.67998V23.28H5.99998V22.08H3.59998V20.4H4.79998V18.24H5.27998V20.88H4.07998V21.6H6.47998V22.8H7.19998V20.4H10.08V22.08H8.87998V22.8H10.08V24.48H7.67998V25.2H8.63998V25.68H7.19998ZM5.99998 20.64V19.44H6.47998V20.64H5.99998ZM1.43998 26.88V26.4H2.63998V26.88H1.43998Z" fill="#00C26F"/>
</svg>
